# xmcd
#
# Track frame offsets:
#	150
#	22285
#	36477
#	49612
#	61457
#	78365
#	101837
#	116700
#	134850
#	147262
#	160437
#
# Disc length: 2248 seconds
#
# Revision: 2
# Processed by: cddbd v1.5.2PL0 Copyright (c) Steve Scherf et al.
# Submitted via: EasyCDDAExtractor 16.0.9.1
#
DISCID=aa08c60b
DTITLE=Simon and Garfunkel - Collected Works
DYEAR=1990
DGENRE=Folk Rock
TTITLE0=Bridge Over Troubled Water
TTITLE1=El Condor Pasa (If I Could)
TTITLE2=Cecilia
TTITLE3=Keep the Customer Satisfied
TTITLE4=So Long, Frank Lloyd Wright
TTITLE5=The Boxer
TTITLE6=Baby Driver
TTITLE7=The Only Living Boy in New York
TTITLE8=Why Don't You Write Me
TTITLE9=Bye Bye Love
TTITLE10=Song for the Asking
EXTD=
EXTT0=
EXTT1=
EXTT2=
EXTT3=
EXTT4=
EXTT5=
EXTT6=
EXTT7=
EXTT8=
EXTT9=
EXTT10=
PLAYORDER=
